PathFileType	4	(X/Y/Z)	./resultDataOpenSim/trcMotMarkerGrf/sub10/qtm-04-04.trc
DataRate	CameraRate	NumFrames	NumMarkers	Units	OrigDataRate	OrigDataStartFrame	OrigNumFrames
250.000000	250.000000	6	24	m	250.000000	326	520
Frame#	Time	L.Toe.Tip			R.Toe.Tip			L.Ankle.Lat			R.Ankle.Lat			L.Ankle.Med			R.Ankle.Med			L.Heel			R.Heel			L.Knee.Lat			R.Knee.Lat			L.Knee.Med			R.Knee.Med			L.Thigh.Upper			R.Thigh.Upper			L.ASIS			R.ASIS			V.Sacral			L.Acromium			R.Acromium			C7			L.Elbow			R.Elbow			L.Wrist.Lat			R.Wrist.Lat
		X1	Y1	Z1	X2	Y2	Z2	X3	Y3	Z3	X4	Y4	Z4	X5	Y5	Z5	X6	Y6	Z6	X7	Y7	Z7	X8	Y8	Z8	X9	Y9	Z9	X10	Y10	Z10	X11	Y11	Z11	X12	Y12	Z12	X13	Y13	Z13	X14	Y14	Z14	X15	Y15	Z15	X16	Y16	Z16	X17	Y17	Z17	X18	Y18	Z18	X19	Y19	Z19	X20	Y20	Z20	X21	Y21	Z21	X22	Y22	Z22	X23	Y23	Z23	X24	Y24	Z24

326	1.3	0.044193305	-0.032947745	-0.048540892	0.89211203	0.043324543	0.042064349	-0.030362049	0.074104251	-0.10031968	0.75539051	0.051839092	0.095613988	-0.0097647909	0.091842524	-0.021458599	0.76711742	0.082355743	0.011763044	-0.091910346	0.097731014	-0.058761227	0.70332569	0.027648301	0.052371642	0.19998941	0.38612134	-0.1375445	0.68666896	0.44311817	0.11652312	0.21194005	0.35681196	-0.017456384	0.68913129	0.44883397	-0.010917527	0.34574895	0.745547	-0.1895838	0.48315061	0.78931921	0.17940402	0.44015068	0.84208122	-0.15527839	0.51861883	0.86884259	0.080343388	0.2975914	0.8716659	0.036878354	0.4514222	1.3322295	-0.16431915	0.46399667	1.3199386	0.15641164	0.37275921	1.3564713	-0.0049512058	0.47024516	0.98112821	-0.23527431	0.26001494	1.0438313	0.19018955	0.70588916	0.98041156	-0.14904353	0.25664119	0.82785999	0.30264766
327	1.304	0.045773352	-0.033342745	-0.04877504	0.89322603	0.042597183	0.041834612	-0.025532888	0.075791896	-0.10150691	0.75558367	0.052293718	0.095367383	-0.0042017663	0.093028939	-0.022782189	0.76760498	0.082168391	0.011178453	-0.086022792	0.10108306	-0.05944827	0.7037775	0.027956775	0.052251518	0.20725289	0.38586073	-0.13777691	0.69385974	0.44493718	0.11619212	0.21917586	0.35650747	-0.018120996	0.69448798	0.45063191	-0.011647257	0.35356518	0.7447798	-0.18957192	0.48947434	0.79090394	0.1795747	0.44795939	0.84179199	-0.15437381	0.52542674	0.86980779	0.081193515	0.30461928	0.87284289	0.035768324	0.45872069	1.333233	-0.16335322	0.47114081	1.3204132	0.15716297	0.37988657	1.3571333	-0.003932358	0.47501849	0.98191031	-0.23481405	0.26825228	1.0436329	0.19084307	0.71076046	0.97940181	-0.14876383	0.26467235	0.82825567	0.30465462
328	1.308	0.047403686	-0.033889584	-0.048972392	0.89429494	0.041882733	0.041538657	-0.020355218	0.077329451	-0.10267071	0.75580742	0.052756373	0.094987203	0.001711853	0.094080442	-0.024152521	0.76808993	0.081966993	0.010474379	-0.07974174	0.10440146	-0.060146072	0.7042116	0.028230614	0.052087824	0.21474744	0.38551649	-0.13805289	0.70088492	0.44666165	0.11574896	0.22674657	0.35606143	-0.018902672	0.69989633	0.45255957	-0.01244028	0.3613981	0.7439822	-0.18952666	0.49598804	0.79264822	0.17980457	0.45571261	0.84151825	-0.15341672	0.53225558	0.87085333	0.081985697	0.31144046	0.87400305	0.034424832	0.46604218	1.3342506	-0.16237261	0.47824678	1.3209435	0.15791111	0.38701273	1.3578812	-0.0030348724	0.47975011	0.98276354	-0.23440242	0.27646714	1.0434419	0.19155049	0.71560648	0.97824036	-0.14852663	0.272806	0.8286521	0.30660933
329	1.312	0.049053295	-0.034566259	-0.049157047	0.8954056	0.041180355	0.041212725	-0.014811313	0.078709508	-0.1038181	0.75624903	0.053148833	0.094453359	0.0079734517	0.09499501	-0.025554921	0.7686185	0.081728546	0.0096960831	-0.07305073	0.10767371	-0.060917208	0.70463712	0.028482052	0.051921142	0.22249337	0.38510041	-0.13838867	0.7075448	0.44821461	0.11509757	0.23466095	0.35543131	-0.019740403	0.70532792	0.45451525	-0.013299278	0.36924349	0.74315761	-0.18952407	0.50258576	0.7944925	0.18004061	0.46338529	0.84125443	-0.15240847	0.53910033	0.87193101	0.082708424	0.31780661	0.875126	0.032920937	0.47337346	1.3352695	-0.16137408	0.48530417	1.3215231	0.15865381	0.39412936	1.3586584	-0.0022476428	0.48445845	0.98368625	-0.23403791	0.28465527	1.0432439	0.19232171	0.72041074	0.97692709	-0.14833783	0.28105497	0.82904448	0.30852739
330	1.316	0.050697844	-0.035293496	-0.04938874	0.89652918	0.040525417	0.040888735	-0.008931827	0.079968658	-0.10499384	0.75686646	0.053463931	0.093835941	0.014554566	0.095792017	-0.02697268	0.7691857	0.081437395	0.0088915141	-0.065979154	0.11091205	-0.061786691	0.70504097	0.028706395	0.05175824	0.23051019	0.38462319	-0.13879945	0.71381708	0.44955621	0.11423347	0.24292553	0.35459899	-0.020618402	0.71071744	0.45638958	-0.014202977	0.3770967	0.74232195	-0.18963588	0.50903286	0.79633531	0.18016583	0.47096487	0.8410019	-0.15135223	0.54602615	0.87298534	0.083357857	0.32322581	0.87624646	0.030877184	0.48069457	1.3362805	-0.16036096	0.49229949	1.322153	0.15939274	0.40121013	1.3594223	-0.0015147567	0.48916806	0.98468224	-0.23373561	0.29282107	1.0430387	0.19315348	0.72516084	0.9754595	-0.14820186	0.28942962	0.82942425	0.3104276
331	1.32	0.052314475	-0.035955996	-0.049711721	0.89755236	0.039985596	0.040582021	-0.0027866005	0.081181009	-0.10625135	0.75752714	0.053715376	0.093225437	0.021393863	0.096515047	-0.02839365	0.76975427	0.081093489	0.0081071653	-0.058597951	0.11414962	-0.062745286	0.70540121	0.028887265	0.05158548	0.23881695	0.38409501	-0.13929959	0.71976854	0.45066722	0.11321634	0.25155654	0.35356263	-0.021553492	0.71600518	0.45808056	-0.015146156	0.38494484	0.74149066	-0.18982345	0.51515177	0.7980974	0.18009472	0.47844978	0.84076897	-0.15025155	0.55321571	0.87397753	0.083928894	0.3276364	0.87739998	0.028117147	0.48797972	1.3372799	-0.15934648	0.49922154	1.3228317	0.16012804	0.40821821	1.3601572	-0.00077837522	0.4938944	0.98575282	-0.2335092	0.30097042	1.0428373	0.19403149	0.72985281	0.9738363	-0.1481287	0.29793388	0.82978433	0.31232258
